<svg width="1314" height="280" viewBox="0 0 1314 280" fill="none" xmlns="http://www.w3.org/2000/svg">
<path d="M128.214 123.784C120.822 123.784 114.027 122.067 107.83 118.632C101.707 115.198 96.8166 110.419 93.1579 104.296C89.5739 98.0989 87.7819 91.1549 87.7819 83.4642C87.7819 75.7736 89.5739 68.8669 93.1579 62.7442C96.8166 56.6216 101.707 51.8429 107.83 48.4082C114.027 44.9736 120.822 43.2562 128.214 43.2562C135.606 43.2562 142.363 44.9736 148.486 48.4082C154.683 51.8429 159.537 56.6216 163.046 62.7442C166.63 68.8669 168.422 75.7736 168.422 83.4642C168.422 91.1549 166.63 98.0989 163.046 104.296C159.462 110.419 154.609 115.198 148.486 118.632C142.363 122.067 135.606 123.784 128.214 123.784ZM128.214 106.312C134.486 106.312 139.489 104.222 143.222 100.04C147.03 95.8589 148.934 90.3336 148.934 83.4642C148.934 76.5202 147.03 70.9949 143.222 66.8882C139.489 62.7069 134.486 60.6162 128.214 60.6162C121.867 60.6162 116.79 62.6696 112.982 66.7762C109.249 70.8829 107.382 76.4456 107.382 83.4642C107.382 90.4082 109.249 95.9709 112.982 100.152C116.79 104.259 121.867 106.312 128.214 106.312ZM268.789 60.5042L251.877 123H230.709L220.853 82.4562L210.661 123H189.605L172.581 60.5042H191.733L200.581 105.192L211.109 60.5042H231.381L242.021 104.968L250.757 60.5042H268.789ZM314.172 59.8322C321.49 59.8322 327.314 62.2216 331.644 67.0002C336.05 71.7042 338.252 78.2002 338.252 86.4882V123H319.212V89.0642C319.212 84.8829 318.13 81.6349 315.964 79.3202C313.799 77.0056 310.887 75.8482 307.228 75.8482C303.57 75.8482 300.658 77.0056 298.492 79.3202C296.327 81.6349 295.244 84.8829 295.244 89.0642V123H276.092V60.5042H295.244V68.7922C297.186 66.0296 299.799 63.8642 303.084 62.2962C306.37 60.6536 310.066 59.8322 314.172 59.8322ZM439.136 60.5042L399.936 152.68H379.328L393.664 120.872L368.24 60.5042H389.632L404.08 99.5922L418.416 60.5042H439.136ZM474.509 123.896C468.387 123.896 462.861 122.59 457.933 119.976C453.08 117.363 449.235 113.63 446.397 108.776C443.635 103.923 442.253 98.2482 442.253 91.7522C442.253 85.3309 443.672 79.6936 446.509 74.8402C449.347 69.9122 453.229 66.1416 458.157 63.5282C463.085 60.9149 468.611 59.6082 474.733 59.6082C480.856 59.6082 486.381 60.9149 491.309 63.5282C496.237 66.1416 500.12 69.9122 502.957 74.8402C505.795 79.6936 507.213 85.3309 507.213 91.7522C507.213 98.1736 505.757 103.848 502.845 108.776C500.008 113.63 496.088 117.363 491.085 119.976C486.157 122.59 480.632 123.896 474.509 123.896ZM474.509 107.32C478.168 107.32 481.267 105.976 483.805 103.288C486.419 100.6 487.725 96.7549 487.725 91.7522C487.725 86.7496 486.456 82.9042 483.917 80.2162C481.453 77.5282 478.392 76.1842 474.733 76.1842C471 76.1842 467.901 77.5282 465.437 80.2162C462.973 82.8296 461.741 86.6749 461.741 91.7522C461.741 96.7549 462.936 100.6 465.325 103.288C467.789 105.976 470.851 107.32 474.509 107.32ZM579.086 60.5042V123H559.934V114.488C557.992 117.251 555.342 119.491 551.982 121.208C548.696 122.851 545.038 123.672 541.006 123.672C536.227 123.672 532.008 122.627 528.35 120.536C524.691 118.371 521.854 115.272 519.838 111.24C517.822 107.208 516.814 102.467 516.814 97.0162V60.5042H535.854V94.4402C535.854 98.6216 536.936 101.87 539.102 104.184C541.267 106.499 544.179 107.656 547.838 107.656C551.571 107.656 554.52 106.499 556.686 104.184C558.851 101.87 559.934 98.6216 559.934 94.4402V60.5042H579.086ZM611.994 70.9202C614.234 67.4856 617.034 64.7976 620.394 62.8562C623.754 60.8402 627.488 59.8322 631.594 59.8322V80.1042H626.33C621.552 80.1042 617.968 81.1496 615.578 83.2402C613.189 85.2562 611.994 88.8402 611.994 93.9922V123H592.842V60.5042H611.994V70.9202ZM660.675 91.6402C660.675 85.2189 661.87 79.5816 664.259 74.7282C666.723 69.8749 670.046 66.1416 674.227 63.5282C678.408 60.9149 683.075 59.6082 688.227 59.6082C692.632 59.6082 696.478 60.5042 699.763 62.2962C703.123 64.0882 705.699 66.4402 707.491 69.3522V60.5042H726.643V123H707.491V114.152C705.624 117.064 703.011 119.416 699.651 121.208C696.366 123 692.52 123.896 688.115 123.896C683.038 123.896 678.408 122.59 674.227 119.976C670.046 117.288 666.723 113.518 664.259 108.664C661.87 103.736 660.675 98.0616 660.675 91.6402ZM707.491 91.7522C707.491 86.9736 706.147 83.2029 703.459 80.4402C700.846 77.6776 697.635 76.2962 693.827 76.2962C690.019 76.2962 686.771 77.6776 684.083 80.4402C681.47 83.1282 680.163 86.8616 680.163 91.6402C680.163 96.4189 681.47 100.227 684.083 103.064C686.771 105.827 690.019 107.208 693.827 107.208C697.635 107.208 700.846 105.827 703.459 103.064C706.147 100.302 707.491 96.5309 707.491 91.7522ZM802.211 60.5042V123H783.059V114.488C781.117 117.251 778.467 119.491 775.107 121.208C771.821 122.851 768.163 123.672 764.131 123.672C759.352 123.672 755.133 122.627 751.475 120.536C747.816 118.371 744.979 115.272 742.963 111.24C740.947 107.208 739.939 102.467 739.939 97.0162V60.5042H758.979V94.4402C758.979 98.6216 760.061 101.87 762.227 104.184C764.392 106.499 767.304 107.656 770.963 107.656C774.696 107.656 777.645 106.499 779.811 104.184C781.976 101.87 783.059 98.6216 783.059 94.4402V60.5042H802.211ZM812.159 91.6402C812.159 85.2189 813.354 79.5816 815.743 74.7282C818.207 69.8749 821.53 66.1416 825.711 63.5282C829.893 60.9149 834.559 59.6082 839.711 59.6082C843.818 59.6082 847.551 60.4669 850.911 62.1842C854.346 63.9016 857.034 66.2162 858.975 69.1282V40.1202H878.127V123H858.975V114.04C857.183 117.027 854.607 119.416 851.247 121.208C847.962 123 844.117 123.896 839.711 123.896C834.559 123.896 829.893 122.59 825.711 119.976C821.53 117.288 818.207 113.518 815.743 108.664C813.354 103.736 812.159 98.0616 812.159 91.6402ZM858.975 91.7522C858.975 86.9736 857.631 83.2029 854.943 80.4402C852.33 77.6776 849.119 76.2962 845.311 76.2962C841.503 76.2962 838.255 77.6776 835.567 80.4402C832.954 83.1282 831.647 86.8616 831.647 91.6402C831.647 96.4189 832.954 100.227 835.567 103.064C838.255 105.827 841.503 107.208 845.311 107.208C849.119 107.208 852.33 105.827 854.943 103.064C857.631 100.302 858.975 96.5309 858.975 91.7522ZM901.615 54.0082C898.255 54.0082 895.492 53.0376 893.327 51.0962C891.236 49.0802 890.191 46.6162 890.191 43.7042C890.191 40.7176 891.236 38.2536 893.327 36.3122C895.492 34.2962 898.255 33.2882 901.615 33.2882C904.9 33.2882 907.588 34.2962 909.679 36.3122C911.844 38.2536 912.927 40.7176 912.927 43.7042C912.927 46.6162 911.844 49.0802 909.679 51.0962C907.588 53.0376 904.9 54.0082 901.615 54.0082ZM911.135 60.5042V123H891.983V60.5042H911.135ZM983.926 90.7442C983.926 92.5362 983.814 94.4029 983.59 96.3442H940.246C940.545 100.227 941.777 103.214 943.942 105.304C946.182 107.32 948.908 108.328 952.118 108.328C956.897 108.328 960.22 106.312 962.086 102.28H982.47C981.425 106.387 979.521 110.083 976.758 113.368C974.07 116.654 970.673 119.23 966.566 121.096C962.46 122.963 957.868 123.896 952.79 123.896C946.668 123.896 941.217 122.59 936.438 119.976C931.66 117.363 927.926 113.63 925.238 108.776C922.55 103.923 921.206 98.2482 921.206 91.7522C921.206 85.2562 922.513 79.5816 925.126 74.7282C927.814 69.8749 931.548 66.1416 936.326 63.5282C941.105 60.9149 946.593 59.6082 952.79 59.6082C958.838 59.6082 964.214 60.8776 968.918 63.4162C973.622 65.9549 977.281 69.5762 979.894 74.2802C982.582 78.9842 983.926 84.4722 983.926 90.7442ZM964.326 85.7042C964.326 82.4189 963.206 79.8056 960.966 77.8642C958.726 75.9229 955.926 74.9522 952.566 74.9522C949.356 74.9522 946.63 75.8856 944.39 77.7522C942.225 79.6189 940.881 82.2696 940.358 85.7042H964.326ZM1032.11 59.8322C1039.43 59.8322 1045.25 62.2216 1049.58 67.0002C1053.99 71.7042 1056.19 78.2002 1056.19 86.4882V123H1037.15V89.0642C1037.15 84.8829 1036.07 81.6349 1033.9 79.3202C1031.74 77.0056 1028.82 75.8482 1025.17 75.8482C1021.51 75.8482 1018.6 77.0056 1016.43 79.3202C1014.26 81.6349 1013.18 84.8829 1013.18 89.0642V123H994.03V60.5042H1013.18V68.7922C1015.12 66.0296 1017.74 63.8642 1021.02 62.2962C1024.31 60.6536 1028 59.8322 1032.11 59.8322ZM1065.69 91.7522C1065.69 85.2562 1067 79.5816 1069.61 74.7282C1072.3 69.8749 1075.99 66.1416 1080.7 63.5282C1085.48 60.9149 1090.93 59.6082 1097.05 59.6082C1104.89 59.6082 1111.42 61.6616 1116.65 65.7682C1121.95 69.8749 1125.42 75.6616 1127.07 83.1282H1106.68C1104.97 78.3496 1101.64 75.9602 1096.71 75.9602C1093.21 75.9602 1090.41 77.3416 1088.31 80.1042C1086.22 82.7922 1085.18 86.6749 1085.18 91.7522C1085.18 96.8296 1086.22 100.75 1088.31 103.512C1090.41 106.2 1093.21 107.544 1096.71 107.544C1101.64 107.544 1104.97 105.155 1106.68 100.376H1127.07C1125.42 107.694 1121.95 113.443 1116.65 117.624C1111.35 121.806 1104.82 123.896 1097.05 123.896C1090.93 123.896 1085.48 122.59 1080.7 119.976C1075.99 117.363 1072.3 113.63 1069.61 108.776C1067 103.923 1065.69 98.2482 1065.69 91.7522ZM1196.22 90.7442C1196.22 92.5362 1196.11 94.4029 1195.89 96.3442H1152.54C1152.84 100.227 1154.07 103.214 1156.24 105.304C1158.48 107.32 1161.2 108.328 1164.42 108.328C1169.19 108.328 1172.52 106.312 1174.38 102.28H1194.77C1193.72 106.387 1191.82 110.083 1189.06 113.368C1186.37 116.654 1182.97 119.23 1178.86 121.096C1174.76 122.963 1170.16 123.896 1165.09 123.896C1158.96 123.896 1153.51 122.59 1148.74 119.976C1143.96 117.363 1140.22 113.63 1137.54 108.776C1134.85 103.923 1133.5 98.2482 1133.5 91.7522C1133.5 85.2562 1134.81 79.5816 1137.42 74.7282C1140.11 69.8749 1143.84 66.1416 1148.62 63.5282C1153.4 60.9149 1158.89 59.6082 1165.09 59.6082C1171.14 59.6082 1176.51 60.8776 1181.22 63.4162C1185.92 65.9549 1189.58 69.5762 1192.19 74.2802C1194.88 78.9842 1196.22 84.4722 1196.22 90.7442ZM1176.62 85.7042C1176.62 82.4189 1175.5 79.8056 1173.26 77.8642C1171.02 75.9229 1168.22 74.9522 1164.86 74.9522C1161.65 74.9522 1158.93 75.8856 1156.69 77.7522C1154.52 79.6189 1153.18 82.2696 1152.66 85.7042H1176.62ZM1215.29 123.896C1211.93 123.896 1209.16 122.926 1207 120.984C1204.91 118.968 1203.86 116.504 1203.86 113.592C1203.86 110.606 1204.91 108.104 1207 106.088C1209.16 104.072 1211.93 103.064 1215.29 103.064C1218.57 103.064 1221.26 104.072 1223.35 106.088C1225.52 108.104 1226.6 110.606 1226.6 113.592C1226.6 116.504 1225.52 118.968 1223.35 120.984C1221.26 122.926 1218.57 123.896 1215.29 123.896Z" fill="white"/>
<path fill-rule="evenodd" clip-rule="evenodd" d="M31.688 250.784C26.4025 250.87 21.1515 249.919 16.232 247.984C11.8963 246.285 8.11639 243.418 5.31195 239.7C2.52219 235.855 1.01227 231.23 0.995972 226.48H21.384C21.5029 229.006 22.5851 231.391 24.408 233.144C26.2776 234.731 28.678 235.553 31.128 235.444C33.5261 235.578 35.8977 234.886 37.848 233.484C39.4933 232.174 40.4097 230.153 40.312 228.052C40.3658 226.242 39.6542 224.494 38.352 223.236C36.9517 221.905 35.3194 220.842 33.5359 220.1C30.8832 219.017 28.1723 218.083 25.416 217.3C21.16 216.048 17.0043 214.477 12.9841 212.6C9.7073 210.976 6.86581 208.592 4.69595 205.648C2.38129 202.587 1.22397 198.592 1.22397 193.664C1.22397 186.347 3.87463 180.616 9.17596 176.472C14.4773 172.328 21.384 170.256 29.896 170.256C38.5573 170.256 45.5386 172.328 50.84 176.472C56.1413 180.616 58.9786 186.383 59.352 193.772H38.632C38.5937 191.467 37.5753 189.288 35.8319 187.78C33.9672 186.275 31.6183 185.5 29.224 185.6C27.1932 185.504 25.1985 186.162 23.624 187.448C22.1497 188.811 21.368 190.765 21.496 192.768C21.4728 195.264 22.8597 197.56 25.0799 198.7C28.6452 200.612 32.3985 202.151 36.2799 203.292C40.5068 204.669 44.6407 206.316 48.6559 208.224C51.8875 209.84 54.7041 212.178 56.888 215.056C59.2026 218.043 60.36 221.888 60.36 226.592C60.4072 230.904 59.2221 235.139 56.944 238.8C54.5255 242.585 51.0905 245.612 47.032 247.536C42.2411 249.802 36.9861 250.915 31.688 250.784ZM100.568 250.9C94.8207 250.99 89.1421 249.643 84.0479 246.98C79.2141 244.422 75.2116 240.536 72.5119 235.78C69.6239 230.58 68.1741 224.703 68.312 218.756C68.1882 212.821 69.6579 206.962 72.5679 201.788C75.2967 197 79.3384 193.093 84.216 190.528C89.3316 187.87 95.0273 186.523 100.792 186.608C106.557 186.523 112.252 187.87 117.368 190.528C122.245 193.092 126.287 196.998 129.016 201.784C131.926 206.958 133.396 212.817 133.272 218.752C133.396 224.694 131.905 230.558 128.96 235.72C126.187 240.513 122.107 244.417 117.196 246.976C112.06 249.632 106.349 250.979 100.568 250.9ZM100.568 234.324C104.117 234.371 107.518 232.905 109.92 230.292C112.496 227.604 113.784 223.759 113.784 218.756C113.784 213.753 112.533 209.908 110.032 207.22C107.683 204.599 104.311 203.127 100.792 203.188C97.2615 203.099 93.8671 204.551 91.492 207.164C89.0253 209.815 87.792 213.679 87.792 218.756C87.792 223.756 89.0053 227.601 91.432 230.292C93.7296 232.923 97.0761 234.398 100.568 234.32V234.324ZM231.048 187.5L191.848 279.676H171.24L185.576 247.872L160.152 187.5H181.544L195.996 226.592L210.328 187.5H231.048ZM266.44 250.9C260.693 250.99 255.014 249.643 249.92 246.98C245.086 244.422 241.084 240.536 238.384 235.78C235.496 230.58 234.046 224.703 234.184 218.756C234.06 212.821 235.53 206.962 238.44 201.788C241.169 197.002 245.211 193.096 250.088 190.532C255.204 187.874 260.899 186.527 266.664 186.612C272.429 186.527 278.124 187.874 283.24 190.532C288.117 193.096 292.159 197.002 294.888 201.788C297.798 206.962 299.268 212.821 299.144 218.756C299.268 224.698 297.777 230.562 294.832 235.724C292.06 240.516 287.981 244.421 283.072 246.98C277.935 249.635 272.222 250.981 266.44 250.9H266.44ZM266.44 234.324C269.989 234.371 273.39 232.905 275.792 230.292C278.368 227.604 279.656 223.759 279.656 218.756C279.656 213.753 278.405 209.908 275.904 207.22C273.555 204.599 270.183 203.127 266.664 203.188C263.134 203.099 259.739 204.551 257.364 207.164C254.897 209.815 253.664 213.679 253.664 218.756C253.664 223.756 254.877 227.601 257.304 230.292C259.602 232.923 262.948 234.398 266.44 234.32V234.324ZM371.048 187.5V250H351.896V241.488C349.858 244.332 347.143 246.623 343.996 248.152C340.572 249.855 336.792 250.719 332.968 250.672C328.539 250.762 324.168 249.659 320.312 247.48C316.619 245.315 313.655 242.098 311.8 238.24C309.694 233.8 308.659 228.929 308.776 224.016V187.5H327.816V221.44C327.816 225.621 328.899 228.869 331.064 231.184C333.34 233.545 336.524 234.811 339.8 234.656C343.111 234.825 346.335 233.56 348.648 231.184C350.813 228.869 351.896 225.621 351.896 221.44V187.5H371.048ZM404.76 218.64C404.633 212.796 405.88 207.003 408.4 201.728C410.59 197.141 414.025 193.26 418.312 190.528C422.508 187.91 427.367 186.55 432.312 186.608C436.215 186.561 440.074 187.444 443.568 189.184C446.8 190.757 449.561 193.152 451.576 196.128V167.12H470.728V250H451.576V241.04C449.722 244.086 447.068 246.565 443.904 248.208C440.327 250.062 436.34 250.988 432.312 250.9C427.359 250.957 422.496 249.576 418.312 246.924C414.018 244.148 410.584 240.229 408.396 235.608C405.881 230.312 404.636 224.502 404.76 218.64V218.64ZM451.576 218.752C451.576 213.973 450.251 210.203 447.6 207.44C445.106 204.745 441.583 203.238 437.912 203.296C434.251 203.234 430.733 204.718 428.224 207.384C425.573 210.109 424.248 213.861 424.248 218.64C424.248 223.419 425.573 227.208 428.224 230.008C430.701 232.733 434.23 234.263 437.912 234.208C441.583 234.267 445.106 232.76 447.6 230.064C450.251 227.301 451.576 223.531 451.576 218.752ZM513.064 250.9C507.317 250.99 501.638 249.643 496.544 246.98C491.71 244.422 487.708 240.536 485.008 235.78C482.12 230.58 480.67 224.703 480.808 218.756C480.684 212.821 482.154 206.962 485.064 201.788C487.793 197.002 491.835 193.096 496.712 190.532C501.828 187.874 507.523 186.527 513.288 186.612C519.053 186.527 524.748 187.874 529.864 190.532C534.741 193.096 538.783 197.002 541.512 201.788C544.422 206.962 545.892 212.821 545.768 218.756C545.891 224.697 544.401 230.559 541.456 235.72C538.684 240.512 534.605 244.417 529.696 246.976C524.559 249.632 518.846 250.98 513.064 250.9ZM513.064 234.324C516.613 234.371 520.014 232.905 522.416 230.292C524.992 227.604 526.28 223.759 526.28 218.756C526.28 213.753 525.029 209.908 522.528 207.22C520.179 204.599 516.807 203.127 513.288 203.188C509.758 203.099 506.363 204.551 503.988 207.164C501.527 209.812 500.296 213.675 500.296 218.752C500.296 223.752 501.509 227.597 503.936 230.288C506.231 232.918 509.574 234.395 513.064 234.32V234.324ZM594.04 186.836C601.357 186.836 607.2 189.207 611.568 193.948C615.936 198.689 618.12 205.204 618.12 213.492V250H599.08V216.064C599.08 211.883 597.997 208.635 595.832 206.32C593.556 203.959 590.372 202.694 587.096 202.848C583.82 202.694 580.636 203.959 578.36 206.32C576.195 208.635 575.112 211.883 575.112 216.064V250H555.96V187.5H575.112V195.788C577.121 192.968 579.82 190.712 582.952 189.236C586.414 187.593 590.208 186.77 594.04 186.832V186.836ZM644.776 160.4L643.32 185.152H630.44L628.984 160.4H644.776ZM691.032 233.76V250H681.288C674.344 250 668.931 248.3 665.048 244.9C661.165 241.5 659.224 235.956 659.224 228.268V203.408H651.608V187.5H659.224V172.272H678.376V187.5H690.92V203.4H678.376V228.5C678.235 229.974 678.724 231.438 679.72 232.532C680.616 233.353 682.109 233.764 684.2 233.764L691.032 233.76ZM744.568 167.12V250H725.416V167.12H744.568ZM786.904 250.9C781.157 250.99 775.478 249.643 770.384 246.98C765.55 244.422 761.548 240.536 758.848 235.78C755.96 230.58 754.51 224.703 754.648 218.756C754.524 212.821 755.994 206.962 758.904 201.788C761.633 197.002 765.675 193.096 770.552 190.532C775.668 187.874 781.363 186.527 787.128 186.612C792.893 186.527 798.588 187.874 803.704 190.532C808.581 193.096 812.623 197.002 815.352 201.788C818.262 206.962 819.732 212.821 819.608 218.756C819.731 224.697 818.241 230.559 815.296 235.72C812.524 240.513 808.445 244.417 803.536 246.976C798.399 249.632 792.686 250.98 786.904 250.9ZM786.904 234.324C790.453 234.371 793.854 232.905 796.256 230.292C798.832 227.604 800.12 223.759 800.12 218.756C800.12 213.753 798.869 209.908 796.368 207.22C794.019 204.599 790.647 203.127 787.128 203.188C783.598 203.099 780.203 204.551 777.828 207.164C775.361 209.815 774.128 213.679 774.128 218.756C774.128 223.756 775.341 227.601 777.768 230.292C780.066 232.923 783.412 234.398 786.904 234.32V234.324ZM855.224 250.9C850.229 250.99 845.27 250.036 840.664 248.1C836.698 246.456 833.225 243.813 830.584 240.428C828.156 237.276 826.715 233.477 826.44 229.508H845.368C845.561 231.62 846.665 233.542 848.392 234.772C850.311 236.156 852.635 236.865 855 236.788C856.948 236.906 858.885 236.417 860.544 235.388C861.778 234.591 862.517 233.217 862.504 231.748C862.511 229.962 861.388 228.367 859.704 227.772C856.766 226.567 853.731 225.612 850.632 224.916C846.828 224.074 843.085 222.971 839.432 221.616C836.441 220.456 833.785 218.57 831.704 216.128C829.539 213.627 828.456 210.248 828.456 205.992C828.428 202.5 829.463 199.082 831.424 196.192C833.609 193.074 836.64 190.646 840.16 189.192C844.501 187.378 849.176 186.5 853.88 186.616C861.72 186.616 867.899 188.557 872.416 192.44C876.95 196.358 879.747 201.913 880.196 207.888H862.496C862.272 205.858 861.244 204.002 859.64 202.736C857.81 201.397 855.577 200.727 853.312 200.836C851.503 200.721 849.702 201.171 848.16 202.124C846.999 202.917 846.323 204.247 846.368 205.652C846.378 207.463 847.519 209.074 849.224 209.684C852.092 210.88 855.074 211.781 858.124 212.372C861.967 213.317 865.749 214.495 869.448 215.9C872.428 217.106 875.063 219.03 877.12 221.5C879.32 224.076 880.459 227.529 880.536 231.86C880.582 235.372 879.503 238.806 877.456 241.66C875.194 244.697 872.13 247.044 868.608 248.436C864.36 250.155 859.806 250.994 855.224 250.9ZM951.208 217.748C951.203 219.62 951.091 221.49 950.872 223.349L907.528 223.348C907.827 227.231 909.077 230.197 911.28 232.248C913.478 234.3 916.394 235.406 919.4 235.328C924.179 235.328 927.501 233.312 929.368 229.28H949.752C948.723 233.354 946.79 237.144 944.096 240.368C941.317 243.696 937.811 246.341 933.848 248.1C929.511 250.015 924.812 250.97 920.072 250.9C914.377 251.004 908.749 249.655 903.72 246.98C898.982 244.408 895.092 240.518 892.52 235.78C889.739 230.545 888.35 224.683 888.488 218.756C888.351 212.836 889.719 206.979 892.464 201.732C895.004 196.99 898.879 193.096 903.608 190.532C908.674 187.849 914.34 186.5 920.072 186.612C925.681 186.507 931.226 187.815 936.196 190.416C940.845 192.898 944.677 196.671 947.232 201.28C949.968 206.328 951.339 212.004 951.208 217.744L951.208 217.748ZM931.608 212.708C931.737 209.72 930.5 206.836 928.248 204.868C925.906 202.89 922.912 201.852 919.848 201.956C916.89 201.868 914.003 202.864 911.728 204.756C909.427 206.808 907.97 209.642 907.64 212.708H931.608ZM1019.86 233.764V250H1010.12C1003.18 250 997.763 248.3 993.88 244.9C989.997 241.5 988.056 235.957 988.056 228.272V203.408H980.44V187.5H988.056V172.272H1007.21V187.5H1019.75V203.4H1007.21V228.5C1007.07 229.974 1007.56 231.438 1008.55 232.532C1009.45 233.353 1010.94 233.764 1013.03 233.764H1019.86ZM1068.92 186.836C1076.09 186.836 1081.84 189.207 1086.17 193.948C1090.5 198.689 1092.67 205.204 1092.67 213.492V250H1073.63V216.064C1073.63 211.883 1072.55 208.635 1070.38 206.32C1068.1 203.959 1064.92 202.694 1061.64 202.848C1058.37 202.694 1055.18 203.959 1052.91 206.32C1050.74 208.635 1049.66 211.883 1049.66 216.064V250H1030.51V167.12H1049.66V195.9C1051.7 193.053 1054.44 190.778 1057.61 189.292C1061.14 187.613 1065.01 186.772 1068.92 186.832V186.836ZM1164.9 217.748C1164.9 219.62 1164.79 221.49 1164.57 223.348L1121.22 223.348C1121.52 227.231 1122.77 230.197 1124.98 232.248C1127.17 234.3 1130.09 235.406 1133.1 235.328C1137.87 235.328 1141.2 233.312 1143.06 229.28H1163.45C1162.42 233.354 1160.49 237.143 1157.8 240.368C1155.02 243.697 1151.51 246.342 1147.54 248.1C1143.21 250.015 1138.51 250.97 1133.77 250.9C1128.07 251.004 1122.45 249.655 1117.42 246.98C1112.68 244.408 1108.79 240.518 1106.22 235.78C1103.43 230.545 1102.05 224.683 1102.18 218.756C1102.05 212.837 1103.41 206.979 1106.16 201.732C1108.7 196.99 1112.57 193.096 1117.3 190.532C1122.37 187.849 1128.04 186.5 1133.77 186.612C1139.38 186.507 1144.93 187.817 1149.9 190.42C1154.54 192.903 1158.37 196.676 1160.93 201.284C1163.66 206.331 1165.03 212.005 1164.9 217.744V217.748ZM1145.3 212.708C1145.43 209.72 1144.2 206.836 1141.94 204.868C1139.6 202.89 1136.61 201.852 1133.54 201.956C1130.59 201.868 1127.7 202.864 1125.42 204.756C1123.12 206.808 1121.67 209.642 1121.34 212.708H1145.3ZM1254.73 186.836C1262.49 186.836 1268.67 189.188 1273.26 193.892C1277.86 198.596 1280.15 205.129 1280.15 213.492V250H1261.11V216.064C1261.11 212.032 1260.05 208.915 1257.92 206.712C1255.79 204.509 1252.86 203.409 1249.13 203.412C1245.39 203.412 1242.46 204.512 1240.34 206.712C1238.21 208.912 1237.14 212.029 1237.14 216.064V250H1218.1V216.064C1218.1 212.032 1217.04 208.915 1214.91 206.712C1212.78 204.509 1209.85 203.409 1206.12 203.412C1202.39 203.412 1199.46 204.512 1197.33 206.712C1195.2 208.912 1194.14 212.029 1194.14 216.064V250H1174.98V187.5H1194.14V195.34C1196.13 192.681 1198.75 190.548 1201.75 189.124C1205.07 187.551 1208.72 186.764 1212.39 186.824C1216.78 186.747 1221.12 187.788 1224.99 189.848C1228.65 191.83 1231.67 194.824 1233.67 198.472C1235.89 194.989 1238.93 192.104 1242.52 190.072C1246.23 187.917 1250.44 186.798 1254.73 186.832L1254.73 186.836ZM1302.55 250.9C1299.53 251.023 1296.57 249.957 1294.32 247.932C1292.24 246.066 1291.08 243.389 1291.13 240.596C1291.07 237.754 1292.23 235.023 1294.32 233.096C1296.56 231.039 1299.52 229.951 1302.55 230.072C1305.55 229.965 1308.47 231.052 1310.67 233.096C1312.76 235.023 1313.92 237.754 1313.86 240.596C1313.92 243.389 1312.75 246.066 1310.67 247.932C1308.46 249.944 1305.54 251.009 1302.55 250.9Z" fill="url(#paint0_linear_0_27)"/>
<defs>
<linearGradient id="paint0_linear_0_27" x1="25.9405" y1="217.176" x2="1275.79" y2="217.176" gradientUnits="userSpaceOnUse">
<stop stop-color="#FE6783"/>
<stop offset="1" stop-color="#FFBF84"/>
</linearGradient>
</defs>
</svg>
